<?xml version="1.0" encoding="UTF-8" standalone="no"?>
<!DOCTYPE svg PUBLIC "-//W3C//DTD SVG 1.1//EN" "http://www.w3.org/Graphics/SVG/1.1/DTD/svg11.dtd">
<svg width="100%" height="100%" viewBox="0 0 47 47" version="1.1" xmlns="http://www.w3.org/2000/svg" xmlns:xlink="http://www.w3.org/1999/xlink" xml:space="preserve" xmlns:serif="http://www.serif.com/" style="fill-rule:evenodd;clip-rule:evenodd;stroke-linecap:round;stroke-linejoin:round;stroke-miterlimit:1.5;">
    <g>
        <g transform="matrix(1,0,0,1,-1,2)">
            <path d="M31.01,32.4C29.641,30.977 21.536,37.297 19.617,39.691C17.941,41.784 24.14,45.663 25.33,44.297C27.155,42.199 32.465,33.912 31.01,32.4Z" style="fill:rgb(52,120,245);"/>
        </g>
        <g transform="matrix(1,0,0,1,0,2)">
            <path d="M3.191,41.844C3.137,38.733 3.377,37.058 4.061,35.22C6.386,28.97 9.623,26.935 11.74,25.364C13.686,23.92 15.551,23.015 21.017,22.971C21.286,22.969 22.802,22.976 23.899,22.965C24.727,22.957 25.393,22.279 25.385,21.451C25.377,20.623 24.698,19.957 23.87,19.965C22.776,19.976 21.262,19.969 20.993,19.971C14.468,20.023 12.276,21.231 9.953,22.955C7.547,24.74 3.891,27.071 1.249,34.174C0.352,36.584 0.055,38.744 0.236,43.418C0.236,43.422 0.515,44.873 1.98,44.858C3.316,44.844 10.134,44.758 12.884,44.758C13.712,44.758 14.384,44.086 14.384,43.258C14.384,42.43 13.712,41.758 12.884,41.758C10.635,41.758 5.673,41.815 3.191,41.844Z" style="fill:rgb(52,120,245);"/>
        </g>
        <g transform="matrix(-1,0,0,1,47.0422,2)">
            <path d="M3.191,41.844C5.673,41.815 10.635,41.758 12.884,41.758C13.712,41.758 14.384,42.43 14.384,43.258C14.384,44.086 13.712,44.758 12.884,44.758C10.134,44.758 3.316,44.844 1.98,44.858C0.515,44.873 0.236,43.422 0.236,43.418C0.055,38.744 0.352,36.584 1.249,34.174C3.891,27.071 7.547,24.74 9.953,22.955C12.276,21.231 14.468,20.023 20.993,19.971C21.262,19.969 22.776,19.976 23.87,19.965C24.698,19.957 25.377,20.623 25.385,21.451C25.393,22.279 24.727,22.957 23.899,22.965C22.802,22.976 21.286,22.969 21.017,22.971C15.551,23.015 13.686,23.92 11.74,25.364C9.623,26.935 6.386,28.97 4.061,35.22C3.377,37.058 3.137,38.733 3.191,41.844Z" style="fill:rgb(52,120,245);"/>
        </g>
        <g transform="matrix(1.10293,0,0,0.342128,-2.88491,14.7632)">
            <rect x="19.809" y="9.33" width="8.218" height="13.111" style="fill:rgb(52,120,245);stroke:rgb(52,120,245);stroke-width:1.22px;"/>
        </g>
        <g transform="matrix(-1,0,0,1,47.0956,7)">
            <path d="M23.526,11.452C17.462,11.538 11.479,10.85 9.323,10C8.231,9.569 5.296,8.289 3.119,6.539C1.367,5.132 0.157,3.387 0.157,1.599C0.157,0.771 0.828,0.099 1.657,0.099C5.7,0.099 14.466,0.025 23.213,-0.038C24.041,-0.044 24.718,0.624 24.724,1.451C24.73,2.279 24.063,2.956 23.235,2.962C15.807,3.015 8.366,3.077 3.808,3.094C4.136,3.481 4.557,3.846 4.998,4.201C6.899,5.729 9.471,6.833 10.424,7.209C12.405,7.991 17.912,8.531 23.483,8.452C24.311,8.44 24.993,9.103 25.005,9.93C25.016,10.758 24.354,11.44 23.526,11.452Z" style="fill:rgb(52,120,245);"/>
        </g>
        <g transform="matrix(1,0,0,1,0,7)">
            <path d="M23.468,8.452C17.912,8.588 12.403,7.99 10.424,7.209C9.471,6.833 6.899,5.729 4.998,4.201C4.557,3.846 4.136,3.481 3.808,3.094C8.366,3.077 15.807,3.015 23.235,2.962C24.063,2.956 24.73,2.279 24.724,1.451C24.718,0.624 24.041,-0.044 23.213,-0.038C14.466,0.025 5.7,0.099 1.657,0.099C0.828,0.099 0.157,0.771 0.157,1.599C0.157,3.387 1.367,5.132 3.119,6.539C5.296,8.289 8.231,9.569 9.323,10C11.481,10.851 17.481,11.6 23.542,11.451C24.369,11.431 25.025,10.743 25.004,9.915C24.984,9.087 24.296,8.432 23.468,8.452Z" style="fill:rgb(52,120,245);"/>
        </g>
    </g>
</svg>
