<?xml version="1.0" encoding="UTF-8" standalone="no"?>
<!DOCTYPE svg PUBLIC "-//W3C//DTD SVG 1.1//EN" "http://www.w3.org/Graphics/SVG/1.1/DTD/svg11.dtd">
<svg width="100%" height="100%" viewBox="0 0 47 47" version="1.1" xmlns="http://www.w3.org/2000/svg" xmlns:xlink="http://www.w3.org/1999/xlink" xml:space="preserve" xmlns:serif="http://www.serif.com/" style="fill-rule:evenodd;clip-rule:evenodd;stroke-linejoin:round;stroke-miterlimit:2;">
    <g transform="matrix(2.93609,0,0,2.93609,0,1.10468e-30)">
        <path d="M2.95,0.4C3.139,0.148 3.435,0 3.75,0L12.25,0C12.565,-0 12.861,0.148 13.05,0.4L15.9,4.2C15.965,4.287 16,4.392 16,4.5L16,15C16,15.549 15.549,16 15,16L1,16C0.451,16 0,15.549 0,15L0,4.5C0,4.392 0.035,4.287 0.1,4.2L2.95,0.4ZM7.5,1L3.75,1L1.5,4L7.5,4L7.5,1ZM8.5,1L8.5,4L14.5,4L12.25,1L8.5,1ZM15,5L1,5L1,15L15,15L15,5Z" style="fill:rgb(52,120,245);fill-rule:nonzero;"/>
    </g>
</svg>
